<svg xmlns="http://www.w3.org/2000/svg" width="228.8" height="228.8" xml:space="preserve"><g style="fill:#000;fill-opacity:1"><path d="m37 229-3-2-3-4 10-10 30-28 3-2c7-1 14-4 20-7l7-2h1l11 3 8 1 2 1a17713 17713 0 0 1 39 43l-5-1-25-8-17-3-9-2-12 1a156 156 0 0 1-34 6l-3 1-17 11-3 2zM163 119l-1-7-2-22-6-33-1-11v-3l-2-4-2-2-10-14-10-14-4-6c-1-1-1-1 1-3l2 1 7 5 3 3 6 3 10 8 14 14a176 176 0 0 1 16 18l1 5 3 14 2 7 4 12 4 8 4 20 1 29 1 12v7l-2 1h-2l-2 1h-7a151 151 0 0 1-20-7l-4-3-4-2-7-4-1-3 3-15v-12c0-3 1-4 4-3h1zM7 185l1-15 2-20 2-13 3-17 8-34c3-12 7-25 12-37l11-26 3-3c0-2 1-2 2-1 2 1 2 1 1 2v3c2 4 1 9 1 13l-1 39-1 5c-1 2-2 3-1 5a270 270 0 0 1 2 13v13l1 6v16c1 7 2 15 1 23 0 2 0 4-2 5l-8 4c-8 3-15 8-23 12l-12 7H7zM99 141l7 1c2 1 1 1 2 3l1 3 1-2c0-3 3-5 5-4 1 1 2 1 2 3l2 1 17 6 1 1h-3l-8 2-3-1h-2l-1-1-12-4h-1l17 17-2-1-8-1-3-2-6-4-2-1-2-1v-2l2-2v-1l-1 1-3 1h-1l-4 1-3-1c-2 0-3-1-3-3h-2l-5 2-10 5-4 1-6 1c-2 0-2-1-2-2a125 125 0 0 1 15-40l10-28 2-2 2-2 3-1v29l1 15-1 4-3 6c-1 2-1 2 1 3l2 2c-2 0-4 1-5 3v2h1l1-1c1-2 2-3 4-3 2 1 3 0 4-1l2-2-1-1v-1c3-4 8-4 11-1v2h-6c-1-1-2 0-3 1zm25 8v-1h-2l-7 1-1 1 1 1 8-2h1zm-18 7v1l11 3v-1l-2-1-8-2h-1z" style="fill:#000;fill-opacity:1" transform="translate(11)"/><path d="M113 123V87l-2-9c0-4-1-6-3-9l-1-2 3-2 1 1 4 5 1 2 5 6c3 5 7 9 9 14l5 13 5 12a798 798 0 0 1 9 25l1 5-1 2-4 2h-3l-21-10c-2 0-3-2-6-1l-1-2-1-8v-8zM188 220l-2-1-14-15-23-24-8-7-14-12v-2h1l18 9 1 2 3 2 3 2 21 11 8 5a125 125 0 0 1 12 8v1l-2 5v7c0 3 0 6-2 8l-2 1zM44 205v-2l2-6v-2l-1 1-3 9-1 3-5 5h-1l1-9-1 2a295 295 0 0 0-3 10l-3 4v-8l-1 1-1 5-2 6c-2 2-3 2-5 1-1-1-2-3-1-5l3-2 10-11 24-24 8-9 7-7 1-2-6 2c-2 0-3 1-5 3l2-6c1-2 5-4 9-4 0 1-2 2 0 3l2-3 3-2c4-1 7-3 10-6l8 4-6 5-3-7v3l1 4-1 2-11 13-28 26-2 3h-1zm33-43-1 1c-1 3 0 5 2 7h1v-1l-1-5-1-2zm-19 28h1l2-10-1 1-2 8v1zm9-8c1-1 2-8 1-10-1 1-2 9-1 10zm-15 8-1 7c1-2 2-5 1-7z" style="fill:#000;fill-opacity:1" transform="translate(11)"/><path d="m57 177-6 5-14 14-12 12-11 10-1 2v1l-4 4c0-5 0-11 2-16l-1-7c-1-1 0-2 2-3l2-1a238 238 0 0 1 39-22c2-1 3-1 4 1zM179 178l5-1 9-1 2-1v-1h-2l-16 2h-3l-6-3h-1l8-2 6-1h5l17 7c3 1 4 5 1 7-1 2-3 3-6 2l-5-2c3-2 7-1 9-3h-1l-8 1h-5l-9-4zM17 184c0 3-2 5-3 8h1l1-1 3-6c0-2 1-3 3-4l14-6 3-1-1 1-2 4 1 2h-1l-26 14-5 3H3l-3-2c-1-1 0-3 2-4l5-3 5-3 5-2zM141 161l8-2h1c3-1 6 0 9 1l16 6 5 2-15 3h-2l-15-6-7-3v-1zM160 209h2l9 3c3 1 4 3 6 5l-7-1 2 2 5 1 4 2 3 4-1 2c-1 1-2 2-3 1l-5-4-15-14-1-1h1zM51 168l10-4-2 6-1 1c-7 2-13 6-20 9l1-2c2-5 2-5 7-8l5-2-2 5 1-1 1-2v-2zM138 187l7 2c7 3 7 3 13 8l4 4v1h-1l-11-4-5-3-7-7-1-1h1zM128 176l13 5 2 1 7 6-9-2-5-1-1-1-7-8zM128 156l5-1 7-1h1l9 3h-1l-10 3h-3l-7-3-1-1zM115 165c9 2 16 5 21 12l-1-1-10-3-2-1-7-6-1-1zM150 199l4 2 8 2 2 1 6 5h-1l-8-2h-2l-2-1-7-7z" style="fill:#000;fill-opacity:1" transform="translate(11)"/></g></svg>