<svg xmlns="http://www.w3.org/2000/svg" width="219.5" height="219.5" xml:space="preserve"><path d="M108 191H96l-14-2-12-5-2-1-4-3-12-7-4-6v-2c6-7 12-12 20-17l17-11 14-5c1 0 2-1 2-3l1-3V81l-1-2h-4l-9-2c-7-3-14-4-19-9-2-2-2-2-4 0L54 78l-2 4c-1 4-3 8-3 13l-1 8-3 15v3c0 6 3 10 5 15v3l-2 2h-1l-1-1-5-5c-5-5-8-12-10-20-1-7 0-14 1-20l6-23c0-3 1-5 3-6l1-1 11-10v-3a671 671 0 0 1-6-10l-7 5-11 12-4 7-2 8-5 16-4 20v14c0 5 2 9 3 14l4 9 2 6v2c-3 2-2 2-4 0l-3-2-1-2-5-7a32 32 0 0 1-9-20l-1-13 3-22 2-11 2-8 1-2 8-16c3-4 5-9 9-13l8-8c6-7 14-13 22-18l2-1 9-8 3-1h2c2 2 2 3 1 6-3 3-5 7-6 11l-2 10c0 4 0 7 2 10l9 14c2 3 5 5 8 6l6 3 11 4 2 1v-1l1-11 1-4-1-1-12-4-8-8-5-4-1-2 2-9L90 9c3-3 7-7 12-9h1v2l-4 4-7 10-1 2h2l5-1c7-1 14-2 21-1l6 1 3 1-1-1-1-4c-1-4-4-7-7-10l-1-1V0h1l10 8 3 5c5 5 7 11 8 18 1 1 0 2-1 3l-4 4-2 3c-3 5-9 7-15 8l-1 2v13l2 1 5-1 11-5c7-3 12-8 16-14l2-3c3-4 5-8 5-13 1-6 0-13-2-19l-1-5c0-3 2-5 4-4l6 2 3 1c2 0 3 1 5 3l8 7 7 7a93 93 0 0 1 17 20l4 7 4 9c4 10 6 21 6 32v32l-2 9c-1 5-3 8-6 12-3 6-8 10-14 14l-6 2c-2-1-2-1-1-3l9-15 1-3 3-12c2-4 2-9 2-13l-2-20-1-8a335 335 0 0 0-9-32l-5-6-6-3-7-6-2 1-2 9 1 2 5 5 7 7 1 3c2 8 2 15 2 23v20l-2 7-7 7c-6 6-13 10-21 14h-1l-1-1c-2-1-2-2-1-3l7-7 5-7 1-2V86c0-5-2-9-5-12l-7-7h-4l-5 4c-8 4-17 7-26 8-2 0-2 0-2 2l-1 44-1 9c0 3-1 4-3 5l-8 2-23 10c-7 4-13 8-19 14v2l5 4c6 4 14 6 21 8l13 1 12-1c10 0 20-3 28-9l8-6v-2h-1l-11-3c-6-2-12-3-18-1v7l-3 1-18-1h-8c-2 0-3 0-4-2-1-1 0-2 1-3l2-1c4-4 9-6 14-8l6-2c5-2 9-2 14-2 4 0 8-1 13 1h3l6 2 4 1 11 4h3l2 1v2l-6 9-13 12-14 7-18 4-7 1zm-1-149 4-1c7 0 12-3 17-7 2-2 2-4-1-5l-5-3-5-1h-13c-3-1-6 0-9 1a313 313 0 0 0-9 5c1 3 2 5 5 6 5 3 10 5 16 5z" style="fill:#000;fill-opacity:1" transform="translate(0 14)"/></svg>