<svg width="215" height="215" viewBox="0 0 56.9 56.9" xmlns="http://www.w3.org/2000/svg"><g style="fill:#000;fill-opacity:1"><path style="fill:#000;fill-opacity:1;stroke:none;stroke-width:.264583px;stroke-linecap:butt;stroke-linejoin:miter;stroke-opacity:1" d="m75.4 83.3 2 1.3.3-.5-.2.8 2.3 1.3 1.3-1.6.3-.5 1.3-1.1-.4-3.2-1.2 3-.6-1.2-.2 2-.5-1.6-.6 1.4-.5-1.5-.8 1.8-.6-1.8-.6.6-.3-2.5z" transform="matrix(4.43091 0 0 4.43091 -322 -326.7)"/><path style="fill:#000;fill-opacity:1;stroke:none;stroke-width:.999999px;stroke-linecap:butt;stroke-linejoin:miter;stroke-opacity:1" d="m300.4 280-9.2 6.7 1.1 2.3-2.3-.4-3.5 7.4s0 1.7.3 2.4c.6 0 1.2.3 2 .3l4.1-2.1-2.5 12.5 3.4-3.3 1 7 3.2-6.7 1.5 5.5 2.7-4.7.6 3.6.9-2.2 2.6-1.5.3 3 1.5-3.6-.9-.8 1.7-3.5-1.2-5s3.1 1.3 4.8 1.2c1-1.5 1.8-5 1.8-5l-5.6-2.6zm-4.3 7c.2 0 2 .2 2.3.5.3.3.4 1 .5 1.3.1.4-1 3-1.1 3.3-.2.3-.8.7-1 .8-.3.2-2.6-.3-2.7-.5-.2-.2-.6-1.3-.6-1.6 0-.4 1-2.6 1-2.6s1.4-1.1 1.6-1.1zm8.9 1.5c.4 0 .7.7.6 1 0 .5-.7.9-1 .8-.4-.1-.6-.6-.6-1s.6-.9 1-.8zm-3.5 4.4.8 3.2-2.2-.2z" transform="matrix(1.17235 0 0 1.17235 -322 -326.7)"/><path style="fill:#000;fill-opacity:1;stroke:none;stroke-width:.264583px;stroke-linecap:butt;stroke-linejoin:miter;stroke-opacity:1" d="m75.2 82.6.7-2s-.8.2-1 0V80c0-.1.2-.2.1-.4 0-.3-.5-.3-.8-.4h-.6c-.3.1-.6.4-.5.8 0 .2.4.3.4.5.1.3 0 .7-.2 1-.2.2-.6.3-.6.6s.3.5.6.7c.2.1.5.4.7.2.2 0 0-.5.2-.7l.1-.2.6.1.3.3zM82.9 82.3l-.3-2.1s.7.3 1 .2l.1-.4c0-.2-.2-.3 0-.5 0-.2.5-.2.8-.3l.6.1c.3.2.5.6.4 1 0 .2-.5.1-.6.4l.1 1c.1.2.5.4.5.7 0 .3-.5.4-.8.6-.2 0-.5.2-.7 0-.2 0 0-.5 0-.7 0-.1 0-.2-.2-.2h-.5l-.4.2z" transform="matrix(4.43091 0 0 4.43091 -322 -326.7)"/></g></svg>