<svg xmlns="http://www.w3.org/2000/svg" width="210.2" height="210.2" xml:space="preserve"><g style="fill:#000;fill-opacity:1"><path d="M102 0c7-1 14 2 21 5a22 22 0 0 1 13 12l5 8 3 6a128 128 0 0 1 4 22l-1 13 1 7 1 6c0 5 1 9 3 12 2 5 1 7-3 10l-12 9-3 1h-6l-2 1c-4 4-5 9-5 14v9c2 3 0 5-2 6l-6 5-5 4-4 3h-3l-4-2-12-7-10-6v-3l1-12-2-7-2-3c-2-4-8-5-11-1-2 3-6 3-8 0l-3-3c-5-3-7-7-8-12l-2-8-1-2c-2-2-2-4 0-6l4-3c2-2 3-7 2-10l-1-1c2-6 1-12 1-18 0-5-1-11 1-17l6-9 10-12c3-4 8-5 13-7l16-3 11-1Zm14 98h3l5-2 7-2c4-1 6-5 8-8l1-4-1-3c0-2-1-2-2-2h-5l-8 2-7 2-4 3h-1l-2 1-2 2c-1 2-2 5 0 7s5 4 8 4zm-47 3 9-2 7-4c2-1 2-2 1-4l-3-3-10-3c-6-2-13-3-20-1-1 0-3 2-2 4l5 6c3 4 7 6 13 7zm21 16 2 1 2 1h2l4 1 6-2 1-1c-2-2-2-3-2-5l-4-12c-1-2-2-2-3-1l-3 4-3 7-2 7z" style="fill:#000;fill-opacity:1" transform="translate(5)"/><path d="m9 123 4-4 1-1v-4l-3-1H7l-2-1-3-10-2-12V77l1-13 4-11v-3l7-13c3-5 8-9 13-13h1v2l-4 8c-3 5-5 11-6 17l-2 18c0 7 1 13 3 20l5 8 1 2c2 2 1 4-1 6v5c1 2 3 2 5 0l1-1 2 3v2l-2 2c0 2 0 3 2 4 1 1 3 1 4-1l1-1 3 3-1 2-3 2v3l2 2c3 0 5-1 6-3l1-1 2 2v3c-2 1-2 3-1 4l1 1c1 0 2 0 3-2h4c2 2 2 2 1 5l-1 1 1 4 4-1 1-3c0-2 1-2 2-1l2 1v2l-1 4c0 2 1 3 3 3 1 0 2 0 3-2 1-3 1-3 3-1l2 1-2 4c-1 2 1 5 4 5l2-2 2-3 4 4-1 2c0 2 0 3 2 3l7-1 4-1c4 0 8-1 12 1h2l6 3c2 1 2 0 3-1 1-2 0-3-1-5l4-3 2 2h4c1-1 2-2 1-3l-1-3 4-4c1 3 1 5 3 5h3c1-1 1-3-1-7l6-2c2 2 4 3 5 2v-6l2-2h3l2 1c4 2 6 0 6-4l-2-2c-2-2-2-3 0-4l1-1c3-3 3-2 6 0l3 1 1-2-4-5-1-1 3-5c1-1 2-1 3 1v1c2 2 5 2 6-1s2-5 1-8l-1-3v-2c3-4 5-9 6-14l1-5c1-10 3-20 1-30-1-7-2-13-6-19l-1-3-2-3c-1-2-2-4 0-6l5 5 6 7 5 8 5 12 4 17 1 10-2 19-6 16h-7l-3 4v2l2 1c1 0 3 0 3 2 1 1 0 2-1 3l-1 2c-2-2-4-1-7-1-2 0-3 1-3 3s1 4 3 4l2 1-5 5c-2-3-4-4-7-3l-2 2c-1 1 0 2 1 3l4 2-1 1-2 2c-1 2-1 3-3 1l-1-2-2-1c-2 0-4 3-3 5s2 3 4 3c-1 2-2 3-5 4a806 806 0 0 0-5-5c-3 1-4 4-3 6l3 3v2l-3 3-2-1-1-3-2-2-4 2c-2 2-1 3 1 5l1 1-1 3-3 1c-1 1-2 0-3-2l-1-2c0-2-2-3-4-2s-3 2-2 4l2 3v5c-2 1-3 2-5 1l-1-1-1-4c0-3-1-3-3-2l-3 3v10c2 3 0 6-4 7-3 1-5 4-5 7-1 3-1 6-3 8l-3 2h-9l-2-2c0-3-1-6-3-8l-1-4-4-2-3-1-2-6 1-2v-7c-1-3-2-4-5-3-2 0-4 1-4 4 0 1 0 2-1 1l-5-2c-1 0-1-1 1-2s3-3 3-5c1-2-1-3-2-4h-3l-4 4c-1 1-2 2-3 0l-1-1c-2-1-2-3 0-4 3 0 3-1 3-4 0-2-1-4-4-2l-4 3-3 1c-2-1-3-3-2-4h1l2-4v-2c-3-3-7-2-8 1-1 2-1 2-3 1l-2-2 1-3v-6c-2-2-5-1-6 1s-2 2-3 1l-2-2v-2c2-2 2-4 1-6 0-2-1-2-3-2l-2 1-2 1-2-1c-2-4-2-4 1-6 2-1 2-2 1-3 0-2-3-2-4-1-2 2-2 2-4 0l-3-3zm99 66c4 0 5-1 5-3l-1-4c-1-1-2 0-3 1l-2 1-2 2 2 3h1zm-22-5 2 5 4-1v-3l-3-2h-2l-1 1zm14 6h-1l-1 5 1 1h2l1-1-1-4-1-1z" style="fill:#000;fill-opacity:1" transform="translate(5)"/></g></svg>