<svg xmlns="http://www.w3.org/2000/svg" width="207.1" height="207.1" xml:space="preserve"><g style="fill:#000;fill-opacity:1"><path d="m15 118 1 1c2 5 6 9 9 14l2 1c3 1 6 0 8-3 1-4 3-6 5-9l2-4 2 2 8 13c2 2 5 4 8 4l4-3 4-9 4-7 2 4 7 12 2 1 3 1 4-2 1-4v-26l-1-3-4 4-5 7c-3 3-5 3-7 0l-6-12c-1-2-3-2-4 0l-13 12c-1 2-2 2-3 0l-8-12c-2-3-5-3-6-1l-9 13c-2 2-4 2-6 0l-7-14c-1-3-3-5-5-5-4 0-5-3-6-6L0 68a358 358 0 0 1 2-21l16-15 6-2h14c4 0 4 0 5-4 2-6 1-13-1-20 0-3 1-4 4-5h7l11 1c2 0 4 2 3 5l-2 9c-1 8 6 13 12 14h4l5-3c3-3 5-6 4-11v-6l-1-5c-2-2-1-5 2-5h17l3 1c3 0 5 2 3 5l-2 8c-1 3-1 7 1 11 1 2 3 4 6 4l8 1 5-4c3-6 4-12 0-18l-1-3c0-2 1-4 3-4l18-1 5 1c2 1 2 2 2 3l-1 1c-4 6-2 13-2 19 0 2 4 6 7 6h2c5-1 8 1 10 4l2 2 4 8c0 2 2 4 5 4 6 1 11 1 17-1 2-1 3 0 4 2v2a952 952 0 0 1-1 19c-1 2-1 3-3 2l-13-3c-4-1-6 2-9 4v14c1 4 5 5 8 6h7c3 0 4-2 6-3h3l1 2v18c0 4-1 5-5 3-3-2-6-2-10-2l-5 1c-2 0-4 1-4 3-2 6-1 11-1 17 1 2 4 5 8 6s8 0 12-1c3-1 5 0 5 3v15c0 3-2 4-5 3-6-2-13-3-20-2l-8 3-2 4-10 24-3 7c-1 3-4 4-7 4h-27c-5 0-7-2-8-6l-8-14-2-5c-1-3-3-5-6-5l-57-1-11-1H21l-4-1a487 487 0 0 1-12-17v-3c-2-9 2-15 7-22l3-5zm115-66h-4c-4 0-8 2-11 5-5 5-4 12-5 18l1 2 2 5 2 3c5 3 10 7 17 7 8-1 15-5 17-12l1-8c0-12-8-20-20-20ZM25 72l22-13v-1l-3-1H30c-5 0-6 0-6 6l1 9z" style="fill:#000;fill-opacity:1" transform="translate(0 4)"/><path d="M146 73c0 10-9 15-18 13-5 0-9-3-12-6l-2-4c0-5 0-9 2-13 2-5 6-7 11-7h5c6 0 12 4 13 11l1 6zm-16 8c7 0 8-5 9-10 0-3-5-8-11-7-5 0-8 3-8 8s5 9 10 9z" style="fill:#000;fill-opacity:1" transform="translate(0 4)"/></g></svg>