<svg xmlns="http://www.w3.org/2000/svg" width="219" height="219" xml:space="preserve"><path d="m0 22 8 2c4 2 8 2 12 2l13 1h4l-3-6-4-7-2-5-4-8-1-1h5l10 1 18-1 2 2 4 18 3 7h1l16 1h17l10-1h36l7 1 2-1 2-3 1-3 2-7 3-12 1-1 16-1 2 1h16l1 1-5 9c-2 2-2 5-3 8l-4 9 5-1 9-1 13-2 5-1h1v1l-1 2-1 2c1 2 0 4-1 6l-1 1-2 4-2 3-6 11-5 2c-5-2-9-2-13-2h-12c-2 0-2 1-2 2l-4 7-2 6-2 4-3 5-4 7-4 9-5 9-5 11-4 9-4 6-7 13-1 4v3c3 6 6 13 11 18l4 4 4 3v2l-3 3c-1 3-3 4-5 6l-6 7-2 3-2 2-5 5c-2 2-3 2-4-1l-5-16-1-2-1-2-1-2-3 2-4 8-2 5-5 10-1 1-4-3-3-4-9-10-1-1c0-2-2-4-3-5l-5-3-1-3 2-2c7-7 14-15 19-23l2-3c1-2 2-4 1-6l-5-12-7-14-3-6-4-9-8-16-4-6-10-20-1-3-3-2h-7l-5 1-13 5-3-1-6-6-2-4-3-5-3-8-3-5-4-5-1-2v-1zm84 29v3l6 15 7 12 8 13 4 9 4 7 4-8 7-14 5-9 2-3 2-6 1-3 1-2 6-12-1-1-14-1H84z" style="fill:#000;fill-opacity:1" transform="translate(0 7)"/></svg>