<svg xmlns="http://www.w3.org/2000/svg" width="217.9" height="217.9" xml:space="preserve"><path d="M214 10v27l-1 3c-1 1-1 2-3 2h-9l-5-1-5 1h-1c-1 0-3 1-4-1h-14c-2 0-4 1-5 3l-5 6-13 14-4 4 1 1h8a1087 1087 0 0 0 21 4h2l4-1c5 0 9 1 13-1h11l5-1 3 2 1 4v20l-8 13-2 1h-9l-17 1h-4l2 2c0 3 2 4 4 5l2 3 1 1 2 1 1 2 3 3 5 5 2 2 3 2 3 4 10 10v32l1 6v7l1 10-1 1-8 6h-21l-9 1-9 3h-1l-30 1h-11l-12-2H92l-22 1-6-1-10-1H41l-11 1H13c-3 0-5-1-7 1-1-2-3-3-3-5l-1-13v-3l-1-9v-10l-1-8v-3l1-2v-9c3 0 5-3 7-4l4-5 7-8 7-9 7-8 5-5 3-4-3-2-3-1H4l-1-1-1-4V70h52l5 1 2-1h12L48 41l-1 1c-1-2-3-3-5-3h-7l-3 1h-9l-11-1H5c-2 0-3-1-3-3V5c2-1 4-2 6-1l1-1 6-1h11l9-1a1864 1864 0 0 1 29 1l3 4 8 7 3 2 2 2c0 2 2 3 3 4l4 4 1 1 3 3 2 2 4 5 4 3 2 2c1 2 2 2 4 1 0 1 1 2 2 1h1c3 0 5-1 6-4 1-1 2-3 5-3l1-1 8-8 5-4 7-7 3-3 2-3 5-7c2-3 3-4 6-2l3 1h49l3 5 1 3zM63 153l-3 3v3c0 2 1 2 3 2h49l16 1 6-1h19c2 0 3-1 4-3s0-3-1-4l-1-1c0-3-1-4-2-5l-4-3-6-8-8-10-10-9-3-4-7-9c-3-3-5-4-8-2l-3 3v2l-3 3-13 13-7 8-3 3-2 2-5 6-3 2-3 4-4 4h2z" style="fill:#fff;fill-opacity:1" transform="translate(2)"/></svg>