<svg xmlns="http://www.w3.org/2000/svg" width="212.8" height="212.8" xml:space="preserve"><g style="fill:#fff;fill-opacity:1"><path d="M120 0v8l-8 11c-1 2-3 3-5 3l-1 1c-3 2-7 4-9 8l-1 1-1 9v7l1 8 2 7-1 8-6 11-4 4-7 7c-2 2-3 5-3 8v7c1 4 4 7 7 10h1l-6 4-5 3h-2c-2 0-3 2-4 3v1c-3 2-4 6-7 7v1l-7 9-2 6-3 12v11l2 12 1 3 3 6 2 5 1 5c-3 1-5 0-7-1l-6-3-1-1-2-1-2-3-2-1-7-5-3-2-5-5-1-2-1-1-7-11-7-12-2-3-1-3v-2l-2-7c-1-3 0-6-2-9v-19l1-1 2-7 3-8c1-4 4-8 7-11 7-6 15-10 23-14 4-1 8-3 11-6 4-3 7-8 7-13v-8c0-5 1-9 3-13l2-4 4-5 4-5c1-2 3-3 5-3v-1l8-2 5-1 2-1 3-1h9l7-2 5-3 5-3 3-3h1Z" style="fill:#fff;fill-opacity:1" transform="translate(12)"/><path d="M98 126c5 0 9 1 14 3l1 1c5 0 9 3 13 7 4 3 8 7 10 13l2 5 1 4v22l-1 4-1 2c0 3-2 5-3 7-6 6-11 12-19 15a40 40 0 0 1-32 1l-2-2-5-5h-2l-4-2c-3-1-4-4-6-7l-1-2-5-9v-1c-2-3-3-6-3-10v-9c2-9 6-17 13-24 7-6 15-10 24-12l2-1h4zM182 133c3 0 6 2 6 5v15l-2 7c0 3-2 6-3 8a68 68 0 0 1-22 28l-4 3-3 2-10 5c-2 1-3 0-3-1v-2l1-4 2-5 2-6 1-6v-2l1-3v-21l2-5h1l10 1 8-1v-1l6-2 2-2 4-9 1-4z" style="fill:#fff;fill-opacity:1" transform="translate(12)"/></g></svg>