<svg xmlns="http://www.w3.org/2000/svg" width="196.1" height="196.1" xml:space="preserve"><path d="M123 55v-1c4 3 6 1 7-2l4-4c2-3 1-7 0-10-3-10 0-20 5-29 2-3 6-5 9-6 4-2 8-3 13-3h2v1l-1 1c-4 1-8 4-10 7-4 7-5 14 0 22 6 8 16 10 24 6l7-3c2-2 4-3 5-6l2-3c2 5 2 10 1 15-4 13-16 20-28 19-4 0-8 0-12-2-3-1-5 0-6 3l-1 2c-4 2-8 5-10 9l-1 1c-2 0-2 2-3 3s-1 2 1 3l3 3h1c3-1 3 2 3 3l2 4 1 2c2 8 5 15 5 24v12c0 8-2 17-5 25l-2 2-1-2-2-18-1-3v-2l-1-13-2-3c-3-2-2-4-1-7v-1h-2c-2 0-3-2-4-3-2-4-5-7-10-7-2 0-3 2-4 3l-1 2c-2 1-2 2-1 3l4 7c4 2 2 7 3 10l2 11c0 5 1 11-1 16-1 2 0 3 1 5l-1 2-2 4c0 4-2 6-4 9v3l-1 3c-4 0-6 3-8 5l-7 6-1 2-2 2-3 1c-7 4-14 6-21 7H55c-4-1-8-1-11 1l-2-1c0-2-1-3-3-4l-11-5-5-6-5-4h-1c-2 0-3-1-3-2l-2-5-1-1c-3-2-4-6-6-9-2-6-4-11-4-17-2-7-1-14 1-22 1-6 4-12 9-16 2-2 2-4 1-6-1-3 0-3 2-3l3-1 7-7 6-4c3-1 4-2 4-5l1-2 2 2c1 2 2 2 5 1s6-2 9-1h3c3-2 6-1 10-1l4 1c2 0 3 1 4-1s3-1 4 0l1 1 11 6c3 1 5 1 6-2l2-2c3 0 5-3 4-6-2-5-4-8-8-9l-6-1-4-2c-1-2-4-2-6-3l-8-1-4-2c-3-2-7-3-11-3H34l2-2c4-2 9-4 13-4l20-1 13 1h4a558 558 0 0 1 22 9c-1 3 1 4 2 5 3 2 9 2 11-1 2-1 2-2 2-4v-1z" style="fill:#fff;fill-opacity:1" transform="translate(2)"/></svg>