<svg xmlns="http://www.w3.org/2000/svg" width="225.9" height="225.9" xml:space="preserve"><g style="fill:#fff;fill-opacity:1"><path d="m67 226-1-2-1-25v-19l-1-18v-1c-3-2-5-4-9-4-2 0-3 1-5 3-2 3-2 6-1 10l5 24 1 2h-1l-1-1-5-7-1-3-4-14-3-9v-8c1-7 9-11 15-8l9 3v-24l-1-1c-16-2-29-6-42-15-7-5-14-11-18-19l-1-5c-1-9 1-17 6-25l9-12c6-7 14-11 23-14l14-3 20 1h1l14 5 7 5 5 7 1 6c-1 4-3 8-7 11l-1 1-2 1h-1l-6 2h-7l-8-2-1-2h1l10-3c6-1 11-4 15-9 2-3 2-6-1-8-5-3-9-5-14-5l-14-1-13 2c-7 0-13 2-19 5l-7 4c-5 2-9 6-12 11l-5 10c-4 7-2 13 4 18l4 4 13 8 13 4 19 4h11c19-2 35-9 49-20 5-3 8-8 11-12l3-3 2-2v3l-6 11-10 12-14 11-5 2-1 1-2 2h-1c-3 3-7 4-10 5l-15 2-1 2v23l4-3c3-2 6-2 10 0 3 2 5 6 5 9v9l-1 8c-1 9-4 17-8 25v1l-1 1-1-1 1-3a151 151 0 0 0 3-34l-4-2c-3 0-5 1-7 3l-1 2v13l-1 11c-2 6-2 13-2 20l-2 17-1 3h-1z" style="fill:#fff;fill-opacity:1" transform="translate(42)"/><path d="m142 19-1 2-12 10-5 4v2c3 9 2 17-1 25l-13 19c-3 5-7 9-13 11l-5 3c-4 3-9 4-14 4-6 2-12 1-19-1s-14-5-20-9c-6-3-9-8-10-14l2-6c3-4 7-7 12-7h12l2 1-2 1-8 2-8 4-2 2c-2 2-2 4 0 6l7 3 20 7c5 1 11 0 16-1a54 54 0 0 0 37-24c4-5 3-11 0-16-2-5-5-9-10-12-7-5-15-8-24-9l-19-2-9 1-19 3-1 1c-7 2-14 5-20 9L2 51l-2 2v-2l2-5 2-4 13-12 3-2v-2l-6-5-7-5-1-2h6c5 1 9 1 12 5l1 2 2 2 4-1 11-5v-2l-7-7-4-4-2-2c-1-1 0-2 1-2 4 1 9 1 12 4l7 5v2c-1 1 0 2 1 2l5 1c6-1 11-2 17-1 6 0 13 1 19 3l5 1c1 0 2-1 1-3l1-2 9-10 1-1 1 1v1l-5 15c-1 1-1 2 1 3l11 7c1 1 2 2 4 1l2-2 3-4 11-4h6z" style="fill:#fff;fill-opacity:1" transform="translate(42)"/></g></svg>