<svg xmlns="http://www.w3.org/2000/svg" width="204.8" height="204.8" xml:space="preserve"><g style="fill:#fff;fill-opacity:1"><path d="M114 205v-1h-1l-11-6-7-4-9-4-5-2-5-2-3-2c-2 0-4 1-4 3l-1 4-2 1-18-9v-4l-3-7-3-5-2-1h-4c-3 0-4-1-4-4v-12l1-24-1-13v-3l-1-2v-2l6-12 10-15c1-3 3-4 5-6 0-1 1-2 2-1v2l-1 11-3 9v10a583 583 0 0 1 12 37l1-5 3-10c0-2 1-2 2-2 1 1 2 1 1 3l2 8 2 6 2 2 2-2 1-6 1-1 4 1 2 1 4 8 1 1 1 1 2-1 2-5 2-1 4 2 2 3 6 5c1 2 2 2 3 0l3-12c0-1 0-2 2-3l3 1c1 1 1 3 3 3v1l1 2 2-2 4-10 5-13 3-11v-4l1-6 1-21 1-1 1-2 2 1 3 2 1 2 6 22 1 10 2 10 2 9v7l-1 3-13 15-10 14-4 12c-3 9-6 17-11 25l-2 1-3 1h-1zM0 49l1-1c1-5 4-9 8-13l13-14c3-3 5-3 8 0h2c1-4 4-6 7-7l5-1h7v1c-5 10-8 21-11 31 0 3-2 3-4 3-6 0-11-2-17-1-4 1-8 2-10 6l-4 8v5c0 1 1 2-1 3l-4-1V49Z" style="fill:#fff;fill-opacity:1" transform="translate(2)"/><path d="M75 123c0-2-1-2-2-3l-3-13-3-11-1-5-1-5c-2-3-1-7 3-9l1-1 1-9 1-7c1-1 1-1-1-2l-14-3h-2l-4-1c-2-1-2-2-1-4l3-12 1-8 3-7 3-9 2-2 10-2h7l11-1 2-1c2 0 3 0 3-2s1-2 2-3l9-2c4 1 7 0 11-1h6c1 0 2 0 3 2 3 4 2 3 6 3h2l3 2c4 3 5 7 7 11l6 18 1 6-1 2-1 2-1 5c0 2-2 3-3 3l-8 4c-4 2-5 5-4 8a164 164 0 0 1 1 11l-6 17c-3 5-4 10-4 16 0 4 0 7-2 11l-1 2-2 1-1-1-2-4h-1l-1 4-3 6c-1 2-1 2-2 1l-1-1-2 1v2l-1 1-2-1-1-5v-13c1-2-2-4-4-3l-1 1-2 12-2 6-1 2-2-2-1-8-2-6-1-12v-3l-1 1-2 3-4 11-1 3-2 4zm49-77c3 0 4-1 3-3l-2-10c0-2-1-2-3-1a3456 3456 0 0 0-17 15h4l15-1zM66 34l6 8h1l14 2 1-1 2-6h-5l-10-1-6-2h-3zm28 38v2l1 1 3-3 2-8v-1l-4-6h-2l-1 1-1 6v3c2 1 3 3 2 5zM146 8h2l2 1 5 2c4 1 8 2 12 5l4 1a913 913 0 0 1 18 12l8 8 3 3v2h-1l-9 1-10 2-5 2-2 1-6 3c-2 2-4 2-6 0l-2-2V39l-1-3V24c0-3-2-4-3-5-3-2-5-4-6-7l-3-4z" style="fill:#fff;fill-opacity:1" transform="translate(2)"/></g></svg>