<svg xmlns="http://www.w3.org/2000/svg" width="203.1" height="203.1" style="overflow:visible" xml:space="preserve"><path d="M49 185c-3 0-7 1-8-1-5-3-10-7-11-11-1-3 4-9 8-12 13-11 46-7 55 8 3 5 3 18-2 22-6 4-13 10-20 11-21 2-43 2-62-10-8-5-12-18-6-26 4-5 9-9 15-13l18-8c6-4 10-9 9-17v-6c0-15-1-17-15-26l-8 30c-3 9-8 11-19 6 5-12 11-23 15-36 3-9 6-9-7-15l-4-2 2-15 18 14 15-40c2-6-1-9-6-6L9 43c5-8 13-16 24-19 10-2 13-5 10-16-14 4-27 7-38 19C3 17 2 16 16 9c7-4 15-6 23-9l6 2h3c18-3 23-1 39 8 7 4 9 8 9 16L77 14 57 7v15c12 0 21 4 30 12 8 8 9 20-3 28l-7 4c-5 2-6 4-2 8l8-4 8-6 2 7c1 5 0 10-6 11-7 1-7 5-4 11l16 38c-7 4-12 3-15-5l-7-16-8-16-11 8c-2 2-2 5-2 7l-1 28c0 10-6 13-14 16-7 4-16 7-22 12-8 6-8 17 1 21 17 7 35 12 54 3 3-2 6-7 6-10-1-4-4-9-7-11-10-6-19-4-29 0-6 4-7 9 0 13l5 3v1zm-1-92 11-8c5-3 4-6 2-10L50 52 36 79l1 5 11 9zm10-62c-2 6 4 23 9 27l3 1c3-3 7-4 8-7s0-8-1-11c-5-7-12-9-19-10Z" style="fill:#fff;fill-opacity:1" transform="translate(52)"/></svg>