<svg xmlns="http://www.w3.org/2000/svg" width="212.5" height="212.5" xml:space="preserve"><path d="M22 151c2 2 3 3 5 3l3 4v1h2l4-3 9-10 6-6 3-4 2-2 1-2v-1c-5 0-10-2-14-4l-5-2c-1-1-3-1-3-3l-2-2c-3-1-5-3-6-7l-2-3-6-10V74l5-8 1-1c0-3 2-4 4-6l3-3 7-5 9-4 2-1 4-1h3l4 1h2l7 1 2 1h5v1c2-1 4 0 6 1l4 3 6 6c1 1 3 2 3 5l3 1c2 0 2-1 2-2l1-9v-7a265 265 0 0 0-4 1l-4 1-2-2 1-2 2-3 1-1 2-5 2-3 3-7 6-12 2-4 1-1 1-2 2-4 2-3h1c1 1 3 2 3 4 1 2 2 4 1 6v1c2 2 2 5 3 7a90 90 0 0 0 6 18l2 4 1 6v3c0 2-1 3-3 4h-5l1 10v4h2l3-2 2-1c2-3 5-5 8-6l14-3c5-1 10 0 16 2h1l5 2c2 3 5 4 8 6l3 3 3 5 2 3c-1 2 0 3 2 3l2 4 2 11v1l-2 13-4 8a159 159 0 0 1-7 9c-6 4-12 8-19 10l-7 2c-2 0-2 1-1 3l7 6c2 0 4 2 5 4s3 4 6 4c3 2 4 1 5-1l2-1v-2c0-2 1-3 2-3 2 0 3 1 4 3l2 5 2 3 2 6 1 1 5 7 3 7 2 3 1 3 3 9v1l-1 1-5-2h-1c-1-2-2-2-4-2h-2l-8-2a240 240 0 0 1-26-1l-3-2 1-3 1-1 3-3v-2l-3-3-8-6-3-1v-1l-2-1-1 1-3 15-2 4-1 1h-2c-3 1-3 2-3 5l-1 2-2 4-5 3-4 2-2 1c-5 3-10 4-16 5l-8 1h-6c-5 0-8-3-12-5l-5-1c-1-1-3-1-3-4l-2-1c-3-1-5-3-6-7l-2-4c-3-3-5-7-6-11v-5h-2l-2 2-3 3-1 1c-3 0-4 1-4 3l1 3v3l1 1 1 4-3 1-2 1h-3l-2 1-3 1-3 1-4 2H14l-6 1-3 1-4-1H0v-2l2-2 9-17 6-15 3-5 2-5v-3zm159-56c0-12-10-23-22-23-10-1-17 4-23 12l-2 6v9l-1 5 3 7 7 5 3 3 5 2h3c2 0 4 0 6-2l4-2c10-3 17-12 17-22zM81 160v6l2 8 4 6 2 2 12 6c13 2 26-8 26-21 0-3 0-7-2-10l-2-4a15 15 0 0 0-9-10l-8-1c-3 0-7-1-10 1h-1l-5 2c-5 1-6 5-8 9l-1 6zM42 90c-1 4 1 8 3 11l5 5 5 4 2 1h10l5-1c1 0 3 1 5-1l7-7 2-6v-6c0-3 0-6-2-9l-2-3-3-6c-3-3-6-6-10-6-13-3-25 7-27 20v4z" style="fill:#fff;fill-opacity:1" transform="translate(0 1)"/></svg>