<svg xmlns="http://www.w3.org/2000/svg" width="235.6" height="235.6" viewBox="0 0 235.6 235.7" xml:space="preserve"><g style="fill:#fff;fill-opacity:1"><path d="m202 0-6 7-20 23-8 10-1 2c0 1 0 2 2 2h11l-1 2-8 8-21 17v1c-2 2-3 1-5 0l-10-7-1-1 7-7 3-3v-2h-6l-1-1 1-1 5-4 15-13c13-11 27-23 42-32l2-1zM133 87l-2 1-14 11-1 1 2 1 14 3 2 1c2 1 2 1 1 2l-10 10-21 17-15 11h-1l1 2h1l15-1 2 1c1 1 0 1-1 2l-42 36-10 10-1 2 1 1 10 1 2 1-61 35H4l1-1 22-44 5-11 2-1v12l2-1 16-16 7-5 1-1v-1l-1-1c-4 1-9-1-13-1h-9l3-3 31-28 14-12 1-1v-2h-1l-9 1a164 164 0 0 1-10-1v-1l1-1 32-25 8-6 1-1 7-6h5l4 3 7 4 2 2z" style="fill:#fff;fill-opacity:1" transform="translate(17)"/><path d="M101 236v-7l-2-11-2-21-2-16v-11l-2-1-3-1 6-5h2a67 67 0 0 0 20-2l9-4c9-5 17-12 21-23 2-4 4-9 3-14l-1-15v-3l-6-13c-4-8-11-13-19-17l-3-1-4-1-14-2c-10 1-20 3-28 10l-7 9-7 11c-3 5-3 11-3 16v14l3 6-1 3-4 4-4-12-1-1-2-2H39l-25-3-13-3H0h1l6-2 21-5 15-3 8-2v-1a57 57 0 0 1 34-42l12-3 3-2 6-22 9-30V6h1v18l1 15 1 5 1 17c0 2 0 2 2 3 16 6 28 16 34 32l1 3 4 4 9 2h7l16 3 8 1 1 1-7 1-4 1-1 1c-2-1-5 0-7 1l-4 1h-1l-3 1-12 3c-3 0-3 2-4 4l-2 12c-4 9-10 17-17 23-8 6-16 10-25 11-2 1-2 1-2 3l-1 1 1 2v2l-4 26-4 19-2 12v2h-1z" style="fill:#fff;fill-opacity:1" transform="translate(17)"/></g></svg>