<svg xmlns="http://www.w3.org/2000/svg" width="201" height="201" xml:space="preserve"><g style="fill:#000;fill-opacity:1"><path d="m69 88 10 10c3 3 4 4 8 1s8-5 11-10l2 6c1 2 1 4 3 5 6 6 14 9 22 10h16c3 0 6-1 8-3 4-2 5-7 3-11-1-3-4-3-7-3h-4l1 8c1 2 0 3-2 3h-4c-8 0-16-3-24-6-3-1-5-3-6-7l-1-1-11-14-1-3v-9l2-5c8-7 16-8 26-6 6 2 9 6 12 11l1 7-1 1c0 5 1 7 6 7 9 0 16 3 22 10 2 3 3 6 3 10 1 6-1 12-6 17-3 2-7 4-10 4h-26c-4-1-5 1-5 4l4 22 7 28 1 17-1 1-18 8-1 1c2-9 1-17 0-25l-1-3c-2-2-1-4 0-6 4-7 6-14 4-21-1-7-5-14-10-19l-12-12-7-4h-2l-7 6c-6 4-10 10-14 16s-6 14-4 22l2 8 1 3c2 3 3 5 2 8l-2 7c-1 7 1 13 2 20l-9-3-10-4c-3-1-3-3-3-5l5-21 4-26 2-11 1-5c1-3-1-5-4-5l-9 1-22-5c-7-2-11-8-12-15-2-5 0-10 1-15l2-1c5-7 12-8 19-8 1 0 3 0 3-2s0-4-3-5h-3l1-5 7-14c3-4 7-6 12-7 7-1 14-1 20 1l4 1-2 4c-1 2-1 3 1 4l6 7c3 4 2 12-2 16l-8 8c-3 3-3 6-3 9l-2 5c-1 3-4 4-8 5-8 0-17 1-25-3l2-12c-6 0-10 2-11 6-1 3 0 8 4 10 6 3 12 5 18 5l15-1c8-1 12-6 13-15 0-3 1-6 4-7zm-15-5 5-1c2-2 5-3 7-7 3-4 3-11-2-14-1-2-3-3-5-3-5-2-10 0-14 3-4 2-7 9-5 13 3 6 9 8 14 9zm72-12c0-7-5-13-13-13-8 1-13 4-13 13 0 7 6 12 14 12s11-4 12-12z" style="fill:#000;fill-opacity:1" transform="translate(17)"/><path d="m73 83 2-2c5-5 5-12 4-18 0-2-2-4-3-5l-3-5c-2-2 0-3 0-5 2-4 1-6-3-8l-11-2-20 2c-8 1-13 7-16 14-3 5-6 11-5 18l-8-1-2-2a549 549 0 0 1 1-25l2-1h10c2 0 4-1 5-3l5-12 7-9 5-6 2-1 4 5 3 1c2 1 3-1 2-3l-3-7c11-5 24-6 36-8l-1 8c0 2 1 3 3 3 2 1 3-1 4-3V3l2-2c7 1 14 2 21 6l11 7c1 2 2 3 0 4l-4 4 4 4 5-4c3 1 5 4 6 7l5 12c0 2 2 3 4 3h10l3 1v28h-23v-6c0-8-4-14-11-17-7-2-13-3-20-2-6 1-11 3-15 9-2 2-2 6-3 9-1 6 0 11 5 16v4l-7 7h-4l-9-10zM86 135l12 2c2 1 4 2 5 5 4 6 3 13 1 19-1 4-3 8-8 10-6 2-12 4-18 2l-7-4c-5-4-8-9-9-15-1-8 0-11 7-16 4-3 8-2 12-2h5v-1zm1 17-1-8-2-2-2 2-1 17c0 2 1 3 2 3 2 0 3-1 3-3l1-9zm5 4c0 3 0 5 2 5s3-1 3-3l1-9-2-3-3 2-1 8zm-17-4v-4l-2-4c-1 2-3 2-3 4v8l3 2 2-2v-4zM33 126h12c-4 21-6 43-11 64l-9-5-5-4c-2-1-3-2-2-5 7-13 10-27 14-41l1-5v-4zM150 181l-14 7-14-64 13 1 1 2 7 34c1 7 4 13 7 20zM168 165c-4 6-8 10-15 13-4-8-6-17-8-26l-6-26h8l1 2 3 12c1 9 6 15 12 21l5 4zM21 123l8 2c1 10-12 46-16 48l-1 4-11-10v-3c8-4 12-12 15-20l4-17 1-4zM100 131c-11-1-23-2-34 1 3-4 6-9 11-13l4-2c2-2 4-2 6 0l13 14z" style="fill:#000;fill-opacity:1" transform="translate(17)"/><path d="M45 70c0-5 8-10 12-7l5 3c3 5-1 13-7 13-3 0-6-1-8-4l-2-5zM104 69c-1-4 5-9 10-9s9 6 8 12c0 3-4 7-10 7-5-1-9-4-8-10zm13 2c0-3-2-6-5-6-2 0-3 2-3 4s2 5 4 5c3 0 4-1 4-3z" style="fill:#000;fill-opacity:1" transform="translate(17)"/></g></svg>