<svg data-name="Layer 1" width="215" height="215" xmlns="http://www.w3.org/2000/svg"><path d="M953 1545c-7-3-8-6-8-14l-4-18c-1-3-3-7-1-10a7 7 0 0 0 1-5c-4-17-3-33 6-48l9-9 2-3c4-10 12-13 21-15l9-5 13-3c2 0 5 3 8 5l2 4a27 27 0 0 0 3-4c3-4 9-7 14-6l6 6c4-5 8-3 12 0l10 8c1 0 2 0 1 1 0 7 6 7 10 9 8 5 11 13 13 21 1 5 1 10 5 14 3 4 4 8 2 13a5 5 0 0 0-1 3c2 3 0 5-1 8-2 3-2 7-1 11 0 3 1 5-2 7v5c3 5 3 8-2 12l-3 4-7 10a15 15 0 0 0-2 6c-1 5-3 9-9 11-9 4-19 7-27 12-9 5-18 7-28 4-5-2-10-1-16-1l-4-3-4-2c-6-1-10-2-13-7-2-4-5-7-9-9-4-3-5-7-5-12zm83-42c2-5 7-8 6-14l-12 15-1-1 5-19-2-1-12 19-2-17-2-1-9 15-5-12-2 1-3 13h-1l-6-15c-3 6 1 11 1 17h-1l-11-19h-1l-1 6 2 8c-7 1-8-7-15-8l3 8a30 30 0 0 1 1 4l-4 1-4 1 2 4a9 9 0 0 0 2 3l-3 11c0 2 2 5 3 5 3 1 4-2 4-5l4-14 7 15 5 13 4 3 3-4 4-12 6 18a35 35 0 0 0 3 5l3-5 2-14h1l6 16h3l8-18h1v15l2 5c2-1 4-2 4-4l4-21a43 43 0 0 0 0-5l2-1a26 26 0 0 1 2 3l4 12 5 6 4-6a92 92 0 0 0 1-15c0-3-2-5-6-4h-11l9-10zm4-39c4 4 8 5 13 3 4-2 4-5 4-9 0-3-4-5-6-4l-11 10zm-68-15c-1 5 1 10 5 12 3 2 7 3 10-1-4-4-7-10-15-11z" transform="matrix(1.29109 0 0 1.29109 -1201 -1825)" style="fill:#000;fill-opacity:1"/></svg>