<svg xmlns="http://www.w3.org/2000/svg" width="232.7" height="232.7" xml:space="preserve"><g style="fill:#000;fill-opacity:1"><path d="M109 93v9l-1 10v4l-1 13-2 11-3 14-2 3-2 4v3l-2 7-3 4c-1 2-2 2-4 2h-5a59 59 0 0 0-4 4l-2 1c-1 0-2 0-1 1v4l-1 4-2 9v2h1l1-2 2-10c0-3 3-5 5-7v4l-1 4-2 11c0 4-2 8-4 12l-5 5-3 1h-2l-2 2-3 3-2 5c-1 3-3 3-5 2l-5-3-2-2-8-12-2-2-2-4-2-7v-1l-1-3-4-3c-2-2-4-5-4-8l-2-7-1-1 1-3 1 1 2 2 2 1 2 2 1 7c0 2 1 2 2 2v-6c-1-1 0-2 1-2l3 7 1 1h1v-1l2-6c1-3 1-4-1-6l-5-4-4-3-9-4-7-4-1-2v-3l6-9 2-5-1-3c-1 3-3 6-5 7v-3c1-5 1-9-2-14l-3-8-4-7c-4-4-5-9-6-15a30 30 0 0 1 7-20l5-6c3-3 3-5 1-7l-2-4c-2-3-2-6 1-9 2-1 3-3 3-5l2-3c2-2 2-4 1-6l-1-8 2-1 1 1 2 8v5l-2 6c-1 3-1 5-3 7l-1 2 3 5 5 4c1 1 1 1 2-1l5-7c3-2 3-3 2-6l-3-6c-2-4-2-8 1-11 2-1 2-3 2-4l2-7 1-4 3-18 1-1 2 1v5c0 5 1 10-1 15v11c1 2 1 5-1 7v2l2 2c3 5 3 9 3 14v2l1-1c2-2 4-2 5 0l1 1 2 1c3 0 5 1 7 4 2 2 3 5 3 8l2 2 3 2 2 2v-3l-1-5c-1-5-1-9 1-13l1-1c2-1 3-1 3-3v-5l2-4 2 1c1 4 2 7 1 11l1 8a7896 7896 0 0 1 0 16v4l-1 4-1 5c-1 3 0 6 2 8h2l2-5 1-1-1-9v-9l2-7 1-7 1-5-1-11-3-3-4-5-1-8c0-3 1-5 3-8 2-1 2-3 2-5l-1-5c-1-3-2-6-1-10l1-1 2 1 1 6 4 14v7l-1 11 1 1 1 5 2 5-2 12 1 10 2 6 1 4v7c0 4 0 4 3 6l2 1-1-10c-1-2-2-5-1-8l2-6 2-6c-1-4 1-5 4-4l2 2v2l-1 11v1c-1 3 0 6 1 8zM25 78l-2 1-8 9c-3 3-5 7-5 10l2 14 5 18v1h1v-6l-1-6c0-2 0-5-2-8l-1-4 1-3v-2c0-2 0-4 2-5l5-2c0 2 0 3-2 4v5l-1 3 1 2 1-1 3-9 3-6 1-2-3-12v-1Zm49 90 4-2 5-5c4-2 6-5 7-9v-1l-5-1c-4 0-7 1-10 3l-3 2-1 1-4 6-1 1c-1 2-1 2 1 3l6 1 1 1zm-32-2 6-1c2-1 2-1 1-2l-5-5-6-4-4-2-3-2c-1-1-2-1-2 1l-1 4c0 3 1 5 3 7 3 3 7 4 11 4zm19 11 1-1-3-6h-1l-2 3-2 9c0 2 1 5 3 6l2-1 2-2c2 0 2-2 2-4l-2-4zm-7 47 1-1 1-7v-3c-1-2 0-5 1-7v-14l-2 1-1 2v4l-2 6 1 13v2c-1 1 0 2 1 4zm15-30v-1l-2 3c-1 1-2 2-3 1l-1 1 1 6-1 4-2 6-1 3h1l1-2 3-2c2 0 2-2 3-4l1-11v-4zm-24-5-1 1-1 9 1 2 5 9v1-12c0-2-1-5-3-7l-1-2v-1zm0-45h1l-1-2-4-6-4-7-2-2-1 4 1 4 1 1 2 2 7 6zm22 42c2-1 2-3 2-4l-2 4zm-4-20 1 3c1-2 1-2-1-3z" style="fill:#000;fill-opacity:1" transform="translate(62)"/><path d="m60 0 1 4 1 13-1 4v3c0 6 1 11 4 16l2 2c4 3 4 12-1 16-3 3-7 3-10 0l-3-4 1-5c2-2 1-3 0-5l-6-9c-1-1-2-3-1-5 0-4 1-7 4-10l4-4 1-3 2-11 1-2h1Z" style="fill:#000;fill-opacity:1" transform="translate(62)"/></g></svg>