<svg xmlns="http://www.w3.org/2000/svg" width="222.8" height="222.8" xml:space="preserve"><path d="m170 196-5-5-4-1h-1c-3 0-5 0-7 2l-3 2-12 5a40 40 0 0 1-15 4h-2c-1 2-2 2-3 2l-5 1-2 3v2l-3 7-2 3-1 2-6-7-2-2-2-4-3-2-3-1-7-1-7-2h-1c-3-2-5-1-6 2l-2 2-1 2-1-2-5-9-2-2-7-5-5-4-5-3-3-3-5-3-2-2h-1l-2-3c-2-2-3-3-5-3l-2-1h-3l-3 1c-1 2-3 2-5 2l-2 1 1-4 2-9 1-4 1-3c-1-2-2-4-4-3H6c2-4 3-8 2-12v-7l-2-8-1-2-4-4H0l3-2 3-4v-11l1-9 3-10 2-7v-1l1-4 1-2 1-3c0-2 0-3 2-4l3-3 5-8v-4l3-2 4-1 3-5 1-1 1-1 1-3a3287 3287 0 0 1 0-10l7 3c2 1 4 2 6 1l3-2 1-1 4-1 14-5 7-2 8-2c3 0 5-2 6-4l4-8 1-2 5 8 3 5c1 2 3 2 5 1h1l4 1 5 2c2 1 4 1 5-2l2-1 2 5 2 1 6 2c2 1 5 1 7-1l2-2v6c0 2 2 4 4 4 4 0 7-1 10-3l2-1v3l1 4v5l1 2 1 3c0 2 1 2 3 2h4v1l2 9 6 8 1 1 2 4 2 4 5 13 2 10 1 6 1 6v15l-1 7-2 8v1l-1 5v4l-3 6-1 1-4 8-6 10-2 2-2 5-2 8-1 5v2l-1 3zm-16-65h6l4-1h1l5-1h1l2-5v-5l-1-4c-2-2-4-3-7-3l-4-2 3-3 6-5c2-2 3-3 1-6l-1-1-2-6-2-4-2-5-3-4-4-2-2-1-2 2-8 3-13 4-2 1v-2l3-8 1-4 2-6 2-6-1-2v-3c-1-2-2-3-4-3l-2 2-3 4-4 3v1l-2 3-1-1V47c0-2-2-5-4-5l-4-1-7-2h-9l-5 1h-1c-2 0-3 2-4 3l-1 5-2 8-5-9c-1-2-2-3-4-2-2 0-2 1-2 3v8l-1 9v14h-1l-1-1-4-5a116 116 0 0 0-10-9l-5-3c-1-1-3 0-5 1l-4 6-2 3v5l3 7 4 6 1 2 2 4 1 2 4 6 1 2h-1l-9-4-12-2-3-1-3 4v3l-1 7 2 4 2 2v1l-1 3-1 2 1 8v6c0 2 2 4 4 4l3-1 9-4 2-1-1 3-1 8-1 5 2 6c2 1 5 2 6 5l2 2c0 2 1 2 3 2l4-2 4-6 2-2v3l2 10c0 2 1 3 3 4l3 2c1 1 4 0 6-1l3-5 1-4 2 3 1 3v1c0 2 1 4 3 4l5 1 4 1a88 88 0 0 0 11-1c3 0 4-2 4-4l1-1 1-4 1-5 5 8 2 1h7c3 0 5-2 7-3l1-2v-2l-2-9-2-16-1-3 1 1 9 7 4 4 3 3c2 2 5 2 7 0l4-5-1-6-6-7-3-4z" style="fill:#000;fill-opacity:1" transform="translate(13)"/></svg>