<svg xmlns="http://www.w3.org/2000/svg" width="236" height="236" xml:space="preserve"><path d="M90 0c5 5 6 8 4 11 5 5 1 11 2 17l15-9 2 1c-8 17-12 34-11 52l3-6c4-10 10-18 17-26l16-15 6-2-2 6c-7 9-13 19-17 29l-7 11c-4 11-7 22-6 34s3 24 7 35c3 7 8 13 14 18 9 7 24 3 30-7 5-6 4-14 4-21-1-11-4-22-14-29-7-6-18-5-21 7-2 8-1 15 1 23l6 7c2 2 4 1 7-1 3-4 4-11 1-16-1-2-3-1-5-1h-4l1-4c1-2 3-5 7-5s7 2 9 5c4 7 5 23-3 31-4 3-12 4-17 2-7-4-13-9-15-17-2-11-4-21 1-31 3-7 8-12 15-13 8-1 16-3 23 1 16 9 24 21 23 39l-1 18c-2 21-19 33-37 32-7-1-13-4-19-8l-2-1h-1c2 5 3 10 6 14l16 26 1 4-5-1c-5-4-11-8-15-14-7-7-12-16-18-24l-4-10v14l2 14 3 14 6 13c-8 1-11-6-17-9v4l-2 18c0 2-3 4-5 6-2-2-4-3-5-6-4-6-3-13-2-19v-4l-4 3-9 6h-4l1-3 5-8c5-7 6-16 7-24l1-15v-5l-9 17c-7 12-16 24-28 32h-3l1-3 18-30 3-7-1-1-3 2c-12 7-25 7-38 2-9-4-17-12-18-23l-2-30c1-15 14-32 29-35 9-2 19-1 27 7 10 10 10 21 7 33-1 6-4 11-7 15-5 10-23 11-29 0-3-5-2-11-3-16l2-7c1-6 9-9 15-7 2 1 3 3 3 8-4-2-7-3-9 1-3 4-2 14 2 16 3 3 7 3 10 0 4-6 8-26 1-34-4-6-14-6-19-2-8 6-12 14-13 24-2 10-2 20 5 29 7 10 23 11 31 1 8-9 13-19 16-31 3-13 3-26 1-38l-8-20c-5-13-12-25-20-36l-3-4 1-1 4 2c8 5 15 12 20 20l15 26 1 1c0-9 1-18-2-27L65 20c8-1 11 6 18 9l-1-3c0-10-2-19 7-26h1z" style="fill:#000;fill-opacity:1" transform="translate(27)"/></svg>