<svg xmlns="http://www.w3.org/2000/svg" xml:space="preserve" width="224.5" height="224.5"><path d="M213 0a557 557 0 0 1 3 7l-1 12-2 11-9 15-1 3-2 2-8 7-6 3-5 1-2 1-2 1h-1l-6 2-4 1-2 1h-5l-2 5 2 4 2 4-1 3v15l-1 2v2l-2 4-1 1-1 1-7 6-1 1-3 3v4l1 3c1 0 2 0 3-2h1l5 11 4 5 7 5 7 2h16c4-1 6-3 9-5l7-6 8-8v-4l1-2 1-2 2-6v-2l1-4v-4l2-4 3 8 1 6v10l-1 11-1 8-2 6-1 4-4 5-1 1c-1 4-3 6-5 8l-16 10c-4 1-7 2-10 1l-3 1h-5l-3-1-5-1-6-2-5-4-7-5c-1-1-2-3-4-3l-5-1c-2 0-3 2-2 4v14l1 4-2 8-1 1-1 1-2 8-4 7-2 2-2 2-1 2h-1l-1-1 1-2v-4l1-3v-4l-1-2a983 983 0 0 1-2-16 59 59 0 0 1 0-13l-2-7v-4l-1-2-1 3v11l-1 1-1 1v8c0 2-1 3-3 2 0 4 1 8-1 11l1 5 1 8 2 5c1 1 0 4-1 6l-1-2-3-4-1-3c-2-1-3-4-4-6l-4-9v-29c-3-1-5-3-6-5l-2 1-3 1-12 10-6 3c-1 1-3 2-4 1-4 0-8 2-11 4h-8l-3 1h-3c-3 0-6 0-9-2h-1c-3 0-5-2-7-4l-4-3-3-1-8-11-2-4-4-8-2-7-1-4-1-5v-14l-1-8 2-14c0-1 0-2 2-2l1-2 1 1v9l1 2 1 1 1 6 1 3 2 8 2 8 5 8 3 3 1 2 3 2 4 3c2 2 4 3 7 3h10c2-2 5-1 6-3l6-3 2-1 4-3 4-3 3-2 3-4 5-5 1-2v1l4 1c2 0 3-2 3-4l-1-3-2-1-4-3-1-2-2-1-5-5-1-5-1-2v-6l1-2V82l-1-2V70l-1-1-3-1-2 1-2 1-6-2-1-1-3-1h-5l-5-1-10-5c-6-2-10-7-15-12S9 37 6 30l-3-9c-1-3-1-5 1-8l4 6 8 7 11 5 7 4 7 3a65 65 0 0 0 4 1c2-2 5 0 7 1h9l6-1 1 1 1 2c3-1 3 2 4 3 2 2 4 3 6 0l2-1c1-2 3-2 5-2l4-2 4-2 2-1 3-2h2l6-1 5 1 2-1h14l4 1 7 1h1l7 3h2l2-1v2l1 2 3-1 2-2 2-2 14-1h3l2-1 9-2c8-3 13-8 17-15l4-8 1-5 4-5zM79 97l2 6c0 2 2 3 3 3l3 1 2 1 1-2c1-2 1-4-1-5l-1-1c0-1-1-3-3-3l-2-2-2-1-2 2v1zm79-4h-1l-6 4-5 5c-2 0-2 1-1 3s5 2 7 0l3-3c1 0 2-1 2-3l1-6z" style="fill:#fff;fill-opacity:1" transform="translate(0 4)"/></svg>