<svg xmlns="http://www.w3.org/2000/svg" width="287.5" height="287.5" viewBox="0 0 287.5 287.4" style="overflow:visible" xml:space="preserve"><g style="fill:#fff;fill-opacity:1"><path d="m103 182-4 3-16 10-26 15-2-7c-1-2-3-3-5-2l-19 8-5 1c9-12 19-22 29-32l4 7c1 3 3 4 6 2l12-12 1-4-3-6-2-9c0-3-2-4-4-4l-44-4-22-3-3-2v-1l16-3 41-4 12-2c3-1 5-2 5-5l2-7v-3l-11-10c-2-3-3-2-4 1-2 5-3 5-7 2L20 79l7 3 22 10c3 2 5 1 6-3l2-6 26 15c3 2 5 2 7-1l7-6 1-5-6-19c-1-1-2-3-4-3l-5 2c-3 2-4 1-5-3l-8-29-1-5h1l7 9 6 10c2 3 5 1 7 0 3-2 5-1 6 2l4 6 11 18c3 5 4 5 10 3l2-1c6-1 7-2 8-9l6-37 6-28 1-2 2 10 7 36 3 13 3 12c1 2 3 5 6 5 7 3 7 2 11-5l13-24c2-2 3-1 4 0l5 5c2 2 4 2 6-1l13-21 5-6 1 1-16 50-4-4c-3-3-5-3-7 0l-5 14c-1 2 0 4 1 5l5 6c4 4 4 3 9 1l27-15 2 7c2 4 3 4 6 3l17-8 9-4c-1 3-22 24-32 32l-1-1c-4-5-4-5-10-1l-8 4c-4 3-5 5-3 9l2 6c1 4 4 5 8 5l41 5 23 6-6 2-21 3-30 5-12 4c-5 3-5 8-6 13-1 1 1 2 1 3l11 9c2 2 3 1 5-1l3-5 32 26v1l-3-1-12-6-3-1c-5-2-9-1-11 4-2 6-3 6-8 3l-20-10-18-12v-3l6-12 4-12 1-7v-2c-2-11-2-22-10-30l-10-13c-5-4-11-6-17-9-9-3-19-2-29-1-13 1-25 7-33 19-9 12-13 25-11 40 1 11 5 20 12 28l1 2zm104-37 5 2c1 0 3-2 2-3l-2-3-5 4zm-125-1v-2l-4-2-3 3 3 3 4-2zm98-61-3 4 3 3 3-3-3-4zm-72 6v1l3 2 3-2-3-3-3 2zm96 86-4-2-2 2 2 3 4-3zm-116 9 3-4c0-2-2-2-3-3l-2 3 2 4zm114-77-3 4 2 3 3-2-2-5zm-112 4h-1l-2 3c0 1 1 2 3 2l2-2-2-3zm58-31-3-2-3 2 3 2 3-2z" style="fill:#fff;fill-opacity:1" transform="translate(0 39)"/><path d="M179 119c0 3-3 6-5 8l-6 8c-2 4-4 5-8 3l-8-5c-4-4-9-6-15-6-4 0-8 3-9 7-1 6 0 10 4 13h4l15 1c6 2 12 4 16 8 9 8 12 19 5 30l-8 7c-7 4-13 3-20 3h-8c-3 0-6 0-9-3l-10-5-6-6 1-4 11-8c1-1 2-2 4 1 4 7 15 13 23 12 7-1 12-10 8-16-4-7-10-11-18-12-6 0-12-1-16 4l-5-1c-12-12-11-24-1-38 4-4 9-7 14-9 10-4 17 0 25 4 6 4 13 4 19 4h3z" style="fill:#fff;fill-opacity:1" transform="translate(0 39)"/></g></svg>