<svg xmlns="http://www.w3.org/2000/svg" width="228.9" height="228.9" xml:space="preserve"><g style="fill:#fff;fill-opacity:1"><path d="m229 98-1 1h-2l-1 2v11c0 6-2 12-4 19l-7 21-4 6-8 7-1 1 3-11 1-10c0-6-1-12-4-18l-2-3-2-1-4 1-4 1-3 2-4 3-2 2-5 8-2 2v-2l1-4a809 809 0 0 1 7-16l-3-6c-1-4-4-6-8-9l-3-1c-3-2-6-1-9 0l-4 1-1-2V92l-2-6-1-3c-2-2-3-4-3-7V65l-2-3-2-4h4l3 1h12c2 0 3-1 4-3 2-3 2-6 2-9l1-14c0-6-1-11-5-16l-3-7V5l5-5 3 1v3c0 2 1 4 4 4l2 2 13 8c6 4 12 9 17 15l7 11 5 8 6 14 6 27v5zm-18-45-1 1 1 1 3 12c2 6 2 12 5 18v31l2-10v-4l-1-18c-1-10-4-19-8-29l-1-2zm-24-12 1 2 2 7 2 28v14l2-5-1-19-1-20-4-7h-1zM30 168l-9-8-6-8-7-18a418 418 0 0 1-4-24v-10c0-1 0-2-2-1-1 0-2 0-2-2l1-6c1-12 5-23 10-34a88 88 0 0 1 29-35l15-11 3-2 1-2V6c0-1 1-2 3-1 2 0 3 2 4 4s2 3 1 5l-4 6-3 10-1 16v4c0 4 1 7 3 11h13l5-1v2l-1 1v3l1 2a502 502 0 0 1-2 15c-3 2-4 6-4 9l-1 9v4l-3 1c-3-2-6-2-9-2h-1c-3 2-7 4-9 7l-2 1-3 8v2l6 12 2 5-1 2-1-1-5-9-2-1-2-3-5-3-6-1c-2 0-4 0-5 2-3 8-6 16-4 24 0 4 2 8 5 11v1l2 3 1 1v3h-1zM19 55l-2 1-3 7a184 184 0 0 0-7 34l1 11 1 9 1 1V87l1-2v-1l2-7 4-17 1-1 1-4zm17 38V81l2-24 3-12v-1h-1l-3 5-1 1v8l-1 7-1 12v8l1 7 1 1zM114 29c6-1 10 2 14 4s7 5 8 9l3 10 2 13 1 11-1 1-1 3 3 4 1 3 1 3 1 3v2l1 3c2 1 2 1 1 3l-3 3-1 1-5 5h-3c-2-1-2-1-3 1l-2 7v4l1 2h-3l-4-1-3 3-3 10-2 2-1-2c1-3 0-5-1-8l-1-1-2 1v10l-1 2-2-1-2-9-3-4h-6c-1-1-2-2-1-4v-2l-1-3v-5c-3-2-4-2-6 1-1 2-4 2-5 0l-3-3c-2-1-3-3-4-6a107 107 0 0 0-1-7v-4l1-1c2-1 3-3 3-5v-4l3-7v-3l-1-6c-1-4 0-7 1-11l1-5 1-1 3-8 6-6a67 67 0 0 1 14-6l5-1zm-19 76c4 0 8-1 11-4v-3l-1-1c-4-2-8-4-12-4l-5-1h-2l-2 3v1l4 6c2 2 5 3 7 3zm44-16-16 4-5 2v2l1 1c1 4 5 6 8 5l6-2 4-2 3-4v-3l-1-3zm-19 27-2-2-1-3v-1l-2-3v-4l-1-1-1 1-1 3-1 4-2 5 1 2 3 1 7-2z" style="fill:#fff;fill-opacity:1" transform="translate(0 30)"/><path d="m124 157-2-1v-24l2-4c1-2 2-2 4-1 2 0 3 2 2 3l-1 8-5 19zM105 132l-1 4-1 19v1l-1 1-1-1c-3-8-3-16-4-25l3-3c2 0 3 0 3 2l2 2z" style="fill:#fff;fill-opacity:1" transform="translate(0 30)"/></g></svg>