<svg xmlns="http://www.w3.org/2000/svg" width="222.2" height="222.2" style="overflow:visible" xml:space="preserve"><g style="fill:#fff;fill-opacity:1"><path d="m105 153-8-6-2-2-2-3 3-2 9 2 6 2-3-6c-4-7-2-13 5-17l7-4-5-4c-3-3-4-6 0-10 3-3 7-5 12-5l-2-5-11-9c-2-2-3-4-2-7 2-5 2-9 1-14l-2-14-10 14-1 1c-2 1-3 2-5 1v-4c2-4 2-8 2-12l-2 1-12 7-15 8-15 7c-3 1-4 1-5-2-4-7-10-11-17-13l-10-4h1l16-5h9l2-2v-2l-6-3-23-1h-4c4-5 7-8 13-9l9-1c3 0 4-1 4-4-1-3-2-5-5-6l-12-2-3-1c3-3 7-5 11-6 8-1 15 1 21 5l5 2c2 1 4 1 6-1 1-2 0-3-2-5L50 3l-4-2c4 0 8 0 11 2l20 8 7 4 5 3c3 0 5-2 4-5l-5-8-4-5c8 2 14 4 18 10l5 9 2 3 3 2c2 0 3-2 3-3l1-9V9c4 1 8 3 10 6 6 6 8 14 9 22v6c0 2 0 5 2 5 2 1 5 0 6-2l4-6c2 2 2 5 3 8l2 16v2c2 4 4 5 7 2l2-1c1 7-1 13-5 19l-3 2c-1 1-3 3-2 4l5 2h3v2c-1 4-3 9-7 13l-3 2v5c2 2 4 2 6 1l3-2c-1 6-3 11-9 13l-6 4c3 2 5 0 8 0l-4 6c-3 4-8 6-13 8-4 2-4 3-1 6 1 2 0 3-1 4-5 6-11 10-19 11h-1c-1 1-3 1-3 4 0 2 3 3 5 3l4-1v1l-7 4-12 6c-5 3-6 6-3 11l-1 4c-9 6-18 11-28 14l-25 7c-5 2-10 2-15 2l-7-1 3-3a51 51 0 0 0 15-24c0-3 0-4-3-4h-5c-4 1-7 4-7 8 0 5-1 6-5 7l-6 2h-1v-2c5-7 6-16 8-24l6-28 1-2 3 5c2 3 4 3 7 1 4-3 8-5 13-6h4l-3 4c-4 5-6 11-5 18v10c-1 5 2 9 5 12l4 2h19c7 0 13-6 14-13l-1-8v-1c0-5-3-8-7-10l-3-4 4-2 14-2c4 0 7-2 11-4z" style="fill:#fff;fill-opacity:1" transform="translate(31)"/><path d="M122 95c-5 0-9 3-10 8-2 4-2 9 3 12l-2 2-5 3c-5 3-6 6-4 14l3 6-6-1-9 1c-3 1-4 3-1 5l7 5 3 2c-2 2-5 4-8 4-10-1-18 3-27 6-5 2-7 7-5 12l3-4c3-3 6-4 10-2 6 2 9 9 8 15s-7 11-13 11H58c-6 0-10-3-11-9-2-16 3-28 16-38 7-4 13-9 19-16 3-4 5-8 5-13 0-1 0-3-2-3l-2 3c0 5-3 9-7 12l-7 7c-5 5-9 5-15 1-2-2-4-2-6-1-7 5-15 2-18-6v-6l2-3h1v2c0 5 2 6 6 6 6-1 9-4 12-8l3-7c2-5 4-8 8-9l2-2c-2-2-8-2-11 0s-5 5-3 9h-1l-7-5c-4 3-2 8-3 12l-4-4c-1-3-4-4-7-4l-11-4c-4 0-6-3-9-5l-8-8 1-1 4 2c4 2 9 3 14 2l2-2 4-3c8-3 14-9 20-15 1-2 2-3 4-2h2l17-7c9-4 17-8 26-14l-1 3-2 6c-1 3 0 4 3 4s6-1 8-4l5-6 2-2 2 3c0 7 0 14-3 21-1 3 0 3 2 5l10 6 2 4zm-69 38c3 1 4 1 5-2l2-1c3-2 3-2 2-5l-1-2h3c4 1 7-1 6-5l-2-5c0-2-2-2-3-1l-2 2-10 19zm6-54c-5 2-7 4-8 6 4 0 6-1 8-6z" style="fill:#fff;fill-opacity:1" transform="translate(31)"/></g></svg>