<svg xmlns="http://www.w3.org/2000/svg" width="229.8" height="229.8" xml:space="preserve"><path d="M0 63v-1l3-3c6-7 8-16 10-25l2-4c1-3 3-2 5 0l1 9 1 12 3 4 3 3c2 2 2 3 1 5l-5 2h-4c-1 0-2 0-1 2l3 5 2 2 3 1 2-1c2-1 3-3 3-6l1-3 1-3 1-5 3-2 1-3V37l-1-2-1-1-9-3-1-1c-1-2 1-4 3-4h3c4-3 7-7 9-12l3-10 3-4 1 1c2 3 2 6 1 9v6l1 3c0 2 1 4 3 5l1 1 4 4c2 1 2 3 0 5l-1 1-8 1h-2l-1 1 1 7c1 2 2 2 4 1l3-3c3-1 5-3 8-1 2 0 2 0 3-2l2-11-1-1c-3 0-5-1-7-3v-3l3-2c4-1 6-4 8-7l5-11 2-1 1 2v3c-1 4-1 8 1 12 1 3 2 5 5 6l1 2-1 3c-1 2-2 2-4 2l-2-1-2 2-1 3c0 3-1 5 1 8 0 2 2 2 3 1 3-3 7-5 7-10 2-5 5-8 11-9l6-1 5 1h10l8 1 13 3 13 6 4 2 1 1 1 2 3 1 5 5c3 2 5 6 7 10v5l2 6-1 3h-2l-6-4-16-5a86 86 0 0 0-29 4l-10 5-6 5-5 6-9 16-1 2v2l1 3c1 2 0 4-1 6v2l1 1h5c3 2 6 3 8 6 6 6 10 12 12 19l1 3c0 2-1 3-3 3-1 1-2 0-3-1l-4-2-5-2c-5-1-9 0-13 2l-7 7v4l4 5c1 2 2 3 5 2 1 0 3 0 4 2l1 2-1 3c0 2 0 2 2 2h2l3 1a482 482 0 0 1 15 10l1-1 9-7h2c2 0 4 0 6 2h3l2-2 6-1 6-2c7-3 13-8 18-14l11-23v-1l2 3 1 6v11a349 349 0 0 1-4 18l-3 8-1 6c-4 8-8 15-14 22-5 6-11 11-18 15a157 157 0 0 1-42 11l-6 1h-8l-6-2-10-2-11-3-14-7-11-8-7-7-5-7c-5-8-8-16-11-25l-1-2c-2-1-2-4-3-6l-1-11c0-3-2-5-4-7-2-1-3-3-2-5 3-5 4-10 5-15v-1c1-5 1-10-2-14v-5l1-3 2-2c3 0 5-1 7-3l2-1 4-7c1-1 0-2-1-2l-4-3-1-1-2-6-2-6c-1-2-2-3-4-3H6c-2 2-4 0-5-1l-1-2Zm79 97h-1l-1-1-4-7-2-3-6-4-3-2-8-3c-2-1-4-2-6-1l-2 1 1 2h1l7 5a52 52 0 0 1 13 18c0 2-1 3-2 3l-2-1c-2-1-5-2-8-1h-2l1 1v1l5 6 1 2c-1 1-1 3-3 3h-8l-2 1 1 2 4 3c2 1 2 3 1 4v5l3 2 1-3v-4l2-4 1-2 7-8 7-8 4-2 6-2c2-1 2-3 1-5l-3-5-3-4h-3v2l2 8v1zM59 95v1l1 4 3 8 2 1 5 1h3c2 0 2 0 1-2l-4-6c-1-3-4-5-7-6l-4-1zm28 36-5 1-6 4v4l1 2c2 1 3 1 4-1l8-6 2-1v-2l-4-1zm-32 46 1-1-1-1-1 1 1 1zM65 43v1h2l-1-1h-1z" style="fill:#fff;fill-opacity:1" transform="translate(22)"/></svg>