<svg xmlns="http://www.w3.org/2000/svg" width="243.3" height="243.3" xml:space="preserve"><g style="fill:#fff;fill-opacity:1"><path d="m122 0 1 1 1 2 6 14 9 17 1 3h-3l-7-4h-1v3l2 11 1 1 3 1 11 3 4 3 9 4 4 3 4 3c3-3 8-5 10-10l-4-1v-3l2-1 9-3 3-1 6-2 5-2h2v2l-2 8-4 10-2 5-1 3c-2 0-2-3-3-5l-3 3-6 7v2l3 5c4 4 6 9 8 14l1 5 1 7c0 3 2 4 3 5h2l11-1-2-6-1-2c0-3 1-4 3-3l6 4 3 1 9 5 8 5 8 4-1 1c-2 0-3 2-4 3l-5 2c-6 2-11 4-15 7l-9 3-2 2v-2l2-8h-9l-5 2v1l-3 10-1 3c0 3-1 5-3 8l-5 9-4 5 5 7 2 1c2-2 4-3 4-6h1l1 1 1 4a80 80 0 0 0 4 15l3 9c1 2 0 3-2 3l-3-2-7-2-5-2-10-2-1-2 1-1 4-4-8-8-13 9-5 1-12 5h-5l-3 3v13l10-5 1 1-1 2-2 3c0 3-2 6-4 9l-2 3-5 10-4 9-1 3h-1l-1-1-7-16-5-9-3-6a176 176 0 0 1-2-8h1c3 1 5 2 6 4l1 1v-5l1-11v-1l-7-2c-9-2-17-6-25-11l-2-1-4 1-1 2-6 5-1 1c1 3 3 3 5 3l2 1c1-1 1 0 1 1l-1 1c-2 1-4 3-7 2l-3 1-7 1h-1l-5 1-3 2-4 1-1-1v-1l1-2 2-5 1-8 2-6 1-9 1-1 1 1 2 5 1 2h2l3-3 4-3 1-2v-4l-1-3-8-17-3-11v-1l-4-3H35l1 3 2 3 1 5-1 1h-1c-3-3-6-4-9-5l-4-3h-2l-5-3-3-2-7-3c-1-1-3-2-5-1l-2-2 2-1 5-3 11-7 7-3 7-3 1-1 4-1 1-1v2l-4 7h13c2 0 3-1 4-3 1-6 3-11 6-16l3-8 3-4 1-4-1-2-2-2-5-3v-1l-3 6-3-4c0-5-1-9-3-13l-2-8-2-3-1-3 1-1h1l3 1 4 3 3 1a95 95 0 0 0 15 4l4 1-7 5 7 6c1 1 3 2 5 1l9-4 4-3 8-5 9-3h4l1-2 1-10-1-2-4 1h-1l-3 1h-3v-2l4-8 4-6 4-7 4-7 1-1 1-2 2-3Zm2 63c-9 0-17 1-22 4-11 4-19 10-26 19-4 6-8 12-9 20v7l-1 9v8l1 5 2 7c2 6 6 11 10 16l3 3 2 2 6 5a55 55 0 0 0 84-25l1-3c1-5 3-9 2-14v-12l-1-8v-4c-2-6-5-11-9-16a55 55 0 0 0-43-23Z" style="fill:#fff;fill-opacity:1" transform="translate(1)"/><path d="m127 170-1-2-2 1-8-2-4-1v-1c-1-1-4-1-4-4l-2-4-1-4c-2-4-4-6-8-5l-5-1-1-2c0-5-1-9-4-13l-2-5-1-6 1-2 2-3v-7l2-6 1-3 4-11 3-3c2-2 5-5 9-6l15-4h3l10 2c5 1 8 4 12 8l2 2 1 1 5 9 1 6 1 11 2 4c2 2 2 4 1 6l-3 7-3 10-1 2c0 2 0 2-3 1l-5 1-5 6-1 3v8l-1 1-4 4h-3c0 2-1 2-2 2h-1zm9-34v-1h4l5-1v-4l1-3-1-2-4-1-7 3-4 4 1 3 5 2zm-37-5v2l1 1 2 2h10c2-1 2-1 2-3l-1-3-1-1-6-3h-4c-2 0-3 1-3 2v3zm24 19 1 1h3c2 0 2-2 2-3l-3-9-2-1c-2 0-4 2-5 3l-3 9 2 2 5-2z" style="fill:#fff;fill-opacity:1" transform="translate(1)"/></g></svg>