<svg xmlns="http://www.w3.org/2000/svg" width="215" height="215" viewBox="0 0 56.9 56.9"><defs><clipPath clipPathUnits="userSpaceOnUse" id="a"><path d="M0 0h1218.9v793.7H0Z"/></clipPath><clipPath clipPathUnits="userSpaceOnUse" id="b"><path d="M759.5 678.5h11.1v-13.8h-11z"/></clipPath><clipPath clipPathUnits="userSpaceOnUse" id="c"><path d="M761 666.9h8.2v9.5H761z"/></clipPath></defs><g clip-path="url(#a)" style="fill:#fff;fill-opacity:1" transform="matrix(6.09561 0 0 -6.09561 -4634.3 4122.7)"><g style="fill:#fff;fill-opacity:1"><g clip-path="url(#b)" style="fill:#fff;fill-opacity:1"><g clip-path="url(#c)" style="fill:#fff;fill-opacity:1"><g style="fill:#fff;fill-opacity:1"><path d="M0 0h-.2l.1.2.2.1L0 0m6 1v.1c0 .1-1 1.2-1.5 1.3-.3 0 .3-.4.3-.8 0-.5-1-.4-1.2-.5h-.1c0 .1 0 0-.1 0L3.2 1 3 .7V.3h.3-.1v.3c.3 0 .3-.2.2-.7 0-.5-.5-.7-.8-.7-.2-.1-.3 0-.3.3l.1.9c0 .1 0 .3-.2.4h-.5L1.4.6 1.1.4l.1.1.3.4v.6L1 1 .8.8l.3.6-.1 1S.8 1.3.6 1c-.2-.1.1.4 0 .9-.1.3-.4.5-.5.5l.2-.8s0-.6-.2-.8L-.4.2-.5 0v-.1l-.3-.7V-1l-.2.1v-.5l.2-.5v.4l.1.1.1-.1.3-.2-.2.4c0 .1.3.5.5.5l.3.2V-1L0-1.1v-.3l.2-.2.3.8.3.4v.2L.6 0l.2.2c.4 0 1 0 .5-.4C1-.5.4-1.1.5-2.1c0-1.4.6-2 .7-2 0-.1.1 0 .2 0 0 .2.1.2.2.1l.2-.4c.2 0 .8.8.8.8l-.1.1c-.2.2.2.1.2.2l-.1.1s-.3.2-.3.4h.3l-.2.3s-.2.2 0 .4c.1.3.4-.2.4-.2v.5c.1.1.3.5.6.5.4 0 .2-1.3.2-1.3s.5.7.8.4c.1-.2-.5-2-.4-2L4-4s.4.6.7.5c.3-.1.2-.7 0-1.4S4-6.5 4-6.5v-.1l.4.4c.6.5 2 1.5 2.3 3.7C7.2-.3 5.8.9 6 1" style="fill:#fff;fill-opacity:1;fill-rule:nonzero;stroke:none" transform="translate(762 673.8)"/></g><g style="fill:#fff;fill-opacity:1"><path d="M0 0c-.2-.6-.3-.6-.6-1L-2-2.1c-.2-.3-.5-1.1.5-1.3 1-.1 1.5.2 1.7.9.2.3.1 1-.2 1.5l-.5-.6s.6-1-.4-1.2c-.8-.1-.8.5-.3 1 .6.5 1 1.2 1.2 1.2l.2-.1V0l.3-.2S.4.8 0 1.2C.1 1.2.2.6 0 0" style="fill:#fff;fill-opacity:1;fill-rule:nonzero;stroke:none" transform="translate(765 670.5)"/></g><g style="fill:#fff;fill-opacity:1"><path d="m0 0-.2-1s0-.3.2-.3c.3 0 .2.4.2.4L0 0" style="fill:#fff;fill-opacity:1;fill-rule:nonzero;stroke:none" transform="translate(761.6 672)"/></g><g style="fill:#fff;fill-opacity:1"><path d="m0 0-.2-.8s0-.2.2-.2c.3 0 .2.3.2.3L0 0" style="fill:#fff;fill-opacity:1;fill-rule:nonzero;stroke:none" transform="translate(762 671)"/></g></g></g></g></g></svg>